PathFileType	4	(X/Y/Z)	SUBJ82_1_walk_RCNL2025.trc
DataRate	CameraRate	NumFrames	NumMarkers	Units	OrigDataRate	OrigDataStartFrame	OrigNumFrames
100	100	4	25	mm	100	85	226
Frame#	Time	R_Shoulder			L_Shoulder			C7			J_Notch			R_Elbow			L_Elbow			R_Wrist			L_Wrist			R_Asis			L_Asis			Sacral			Thoracic			Sternum			R_Thigh_Lateral			R_Knee_Lateral			R_Shank_Lateral			R_Ankle_Lateral			R_Heel			R_Toe			L_Thigh_Lateral			L_Knee_Lateral			L_Shank_Lateral			L_Ankle_Lateral			L_Heel			L_Toe		
		X1	Y1	Z1	X2	Y2	Z2	X3	Y3	Z3	X4	Y4	Z4	X5	Y5	Z5	X6	Y6	Z6	X7	Y7	Z7	X8	Y8	Z8	X9	Y9	Z9	X10	Y10	Z10	X11	Y11	Z11	X12	Y12	Z12	X13	Y13	Z13	X14	Y14	Z14	X15	Y15	Z15	X16	Y16	Z16	X17	Y17	Z17	X18	Y18	Z18	X19	Y19	Z19	X20	Y20	Z20	X21	Y21	Z21	X22	Y22	Z22	X23	Y23	Z23	X24	Y24	Z24	X25	Y25	Z25
85	0.84000000	97.321800	1391.277222	-28.759893	138.477509	1429.739990	-434.131226	56.189739	1501.215454	-226.491470	183.312714	1387.528931	-226.553024	-5.731767	1058.588623	26.004261	68.499763	1093.154907	-536.002441	57.255249	804.959320	20.452742	211.348381	873.220490	-532.323334	157.875565	983.717346	-106.697914	167.617264	975.763367	-374.923889	-15.946507	989.955261	-251.880783	-36.861794	1270.567993	-260.406311	207.281281	1210.220703	-237.215668	195.472488	559.743835	-64.716774	214.151245	478.211151	-114.925125	202.091034	251.455826	-66.260376	201.393326	74.535057	-169.564514	159.569336	43.917316	-215.033997	338.592651	49.274998	-188.966446	51.415840	537.557861	-441.686646	42.690121	470.112396	-404.373383	-130.331894	336.373596	-435.208099	-287.617981	234.932266	-370.494781	-320.864227	258.192108	-314.565704	-248.410385	95.972908	-342.614410
86	0.85000000	113.780510	1395.113403	-28.263430	153.719910	1432.924072	-433.782440	71.985397	1504.765625	-225.986969	199.061279	1391.163330	-226.228134	14.664958	1061.727905	28.528349	80.574295	1096.517944	-534.406128	81.361822	808.982605	23.116772	216.607361	872.067627	-530.419983	172.638626	986.377625	-104.971062	183.455521	979.406799	-373.192902	-0.547729	993.702087	-251.096451	-20.967020	1274.073242	-259.346832	222.894577	1213.676514	-236.559021	202.103714	560.503845	-64.406631	218.917267	478.447021	-114.748245	203.351685	251.772354	-66.072670	201.469788	74.658188	-169.598740	159.573822	44.171951	-215.008255	338.575012	49.272388	-189.039810	78.448456	539.643677	-439.856659	72.808319	473.053223	-403.352661	-98.896019	339.431519	-434.523010	-255.539459	236.477875	-370.039368	-289.233246	258.740326	-313.855530	-214.024078	98.347816	-343.663208
87	0.86000000	129.867950	1399.115723	-27.826859	168.629715	1436.000122	-433.597382	87.613068	1508.311768	-225.631790	214.661621	1394.869873	-225.985367	35.252068	1065.057495	31.100361	92.447456	1099.803833	-532.869873	105.717876	813.285004	25.634166	221.610313	871.100311	-528.499420	187.317841	988.920593	-103.315460	199.175827	983.279480	-371.509521	14.806360	997.624390	-250.248627	-5.196974	1277.531494	-258.242157	238.410400	1217.220703	-235.850922	208.354202	561.287109	-64.272217	223.299149	478.750153	-114.730011	204.429581	252.182953	-65.996330	201.516479	74.779305	-169.609634	159.584061	44.439861	-214.979965	338.570648	49.263283	-189.070328	105.111778	542.329529	-437.840576	102.633698	476.647339	-402.088776	-66.957680	341.808319	-433.705566	-222.194214	236.271561	-369.298492	-256.515656	257.266296	-312.883392	-177.120743	99.514641	-344.435669
88	0.87000000	145.617111	1403.234619	-27.420826	183.304077	1438.921875	-433.513214	103.089600	1511.784668	-225.397705	230.136978	1398.565308	-225.781204	56.029400	1068.561890	33.726673	104.124359	1103.003906	-531.382935	130.290779	817.851898	27.999059	226.407288	870.318024	-526.559021	201.921906	991.339539	-101.706123	214.816330	987.288513	-369.839417	30.121077	1001.614563	-249.421204	10.466003	1280.873169	-257.088379	253.831070	1220.777710	-235.058334	214.206863	562.093872	-64.275391	227.305878	479.106903	-114.839378	205.386032	252.664230	-66.010864	201.547516	74.900848	-169.603577	159.591492	44.714188	-214.932602	338.585663	49.242355	-189.066925	131.556274	545.473938	-435.786530	132.143570	480.672394	-400.659271	-34.662239	343.456787	-432.743958	-187.733337	234.387726	-368.259430	-222.783722	253.844955	-311.616882	-138.021805	99.538437	-344.989838
